# xmcd
#
# Track frame offsets:
#	150
#	21504
#	37358
#	60916
#	79515
#	100318
#	123002
#	143182
#	161092
#	179225
#	193794
#	215232
#	233433
#	251176
#
# Disc length: 3589 seconds
#
# Revision: 0
# Processed by: cddbd v1.5.1PL0 Copyright (c) Steve Scherf et al.
# Submitted via: dBpowerAMP V4.0
#
DISCID=ce0e030e
DTITLE=Kasey Chambers - Wayward Angel
DYEAR=2004
DGENRE=Country
TTITLE0=Pony
TTITLE1=Hollywood
TTITLE2=Stronger
TTITLE3=Bluebird
TTITLE4=More Than Ordinary
TTITLE5=Wayward Angel
TTITLE6=Paper Aeroplane
TTITLE7=Like A River
TTITLE8=For Sale
TTITLE9=Follow You Home
TTITLE10=Mother
TTITLE11=Guilty As Sin
TTITLE12=Lost And Found
TTITLE13=Saturated
EXTD=
EXTT0=
EXTT1=
EXTT2=
EXTT3=
EXTT4=
EXTT5=
EXTT6=
EXTT7=
EXTT8=
EXTT9=
EXTT10=
EXTT11=
EXTT12=
EXTT13=
PLAYORDER=
